<?xml version="1.0" encoding="UTF-8"?>
<svg xmlns="http://www.w3.org/2000/svg" viewBox="0 0 64 64">
  <rect width="64" height="64" rx="12" fill="#FFFFFF"/>
  <g>
    <!-- Solar panel in slight perspective -->
    <path d="M10,22 L54,22 L50,46 L14,46 Z" fill="#1F4E5F" stroke="#0F2832" stroke-width="0.8" stroke-linejoin="round"/>
    <line x1="21" y1="22" x2="19" y2="46" stroke="#0F2832" stroke-width="0.5" opacity="0.55"/>
    <line x1="32" y1="22" x2="30" y2="46" stroke="#0F2832" stroke-width="0.5" opacity="0.55"/>
    <line x1="43" y1="22" x2="41" y2="46" stroke="#0F2832" stroke-width="0.5" opacity="0.55"/>
    <line x1="12" y1="30" x2="52" y2="30" stroke="#0F2832" stroke-width="0.5" opacity="0.55"/>
    <line x1="13" y1="38" x2="51" y2="38" stroke="#0F2832" stroke-width="0.5" opacity="0.55"/>
    <!-- Subtle top highlight -->
    <path d="M10,22 L54,22 L53,24 L11,24 Z" fill="#2A6878" opacity="0.5"/>
  </g>
  <!-- Orange flame, top-right of panel -->
  <g>
    <path d="M45,20 C49,12 56,10 57,16 C58,22 53,26 47,26 C44,25 42,22 45,20 Z" fill="#E37E32"/>
    <path d="M48,17 C51,13 55,15 53,19 C51,23 47,23 48,17 Z" fill="#F5C518" opacity="0.85"/>
  </g>
</svg>